<mxfile host="app.diagrams.net" agent="Mozilla/5.0 (Windows NT 10.0; Win64; x64) AppleWebKit/537.36 (KHTML, like Gecko) Chrome/131.0.0.0 Safari/537.36" version="26.0.6">
  <diagram id="C5RBs43oDa-KdzZeNtuy" name="Page-1">
    <mxGraphModel dx="840" dy="522" grid="1" gridSize="10" guides="1" tooltips="1" connect="1" arrows="1" fold="1" page="1" pageScale="1" pageWidth="827" pageHeight="1169" math="0" shadow="0">
      <root>
        <mxCell id="WIyWlLk6GJQsqaUBKTNV-0" />
        <mxCell id="WIyWlLk6GJQsqaUBKTNV-1" parent="WIyWlLk6GJQsqaUBKTNV-0" />
        <mxCell id="QnAHNYZheqqFxq_gVrqq-2" value="" style="edgeStyle=orthogonalEdgeStyle;rounded=0;orthogonalLoop=1;jettySize=auto;html=1;fontFamily=Verdana;fontSize=11;verticalAlign=middle;" edge="1" parent="WIyWlLk6GJQsqaUBKTNV-1" source="QnAHNYZheqqFxq_gVrqq-0" target="QnAHNYZheqqFxq_gVrqq-1">
          <mxGeometry relative="1" as="geometry" />
        </mxCell>
        <mxCell id="QnAHNYZheqqFxq_gVrqq-3" value="" style="edgeStyle=orthogonalEdgeStyle;rounded=0;orthogonalLoop=1;jettySize=auto;html=1;fillColor=#f5f5f5;strokeColor=#666666;strokeWidth=2;fontFamily=Verdana;fontSize=11;verticalAlign=middle;" edge="1" parent="WIyWlLk6GJQsqaUBKTNV-1" source="QnAHNYZheqqFxq_gVrqq-0" target="QnAHNYZheqqFxq_gVrqq-1">
          <mxGeometry relative="1" as="geometry" />
        </mxCell>
        <mxCell id="QnAHNYZheqqFxq_gVrqq-5" value="" style="edgeStyle=orthogonalEdgeStyle;rounded=0;orthogonalLoop=1;jettySize=auto;html=1;fillColor=#f5f5f5;strokeColor=#666666;strokeWidth=2;fontFamily=Verdana;fontSize=11;verticalAlign=middle;" edge="1" parent="WIyWlLk6GJQsqaUBKTNV-1" source="QnAHNYZheqqFxq_gVrqq-0" target="QnAHNYZheqqFxq_gVrqq-4">
          <mxGeometry relative="1" as="geometry" />
        </mxCell>
        <mxCell id="QnAHNYZheqqFxq_gVrqq-0" value="BRUV data" style="rounded=0;whiteSpace=wrap;html=1;fillColor=#f5f5f5;fontColor=#333333;strokeColor=#666666;fontFamily=Verdana;fontSize=11;verticalAlign=middle;" vertex="1" parent="WIyWlLk6GJQsqaUBKTNV-1">
          <mxGeometry x="60" y="40" width="120" height="30" as="geometry" />
        </mxCell>
        <mxCell id="QnAHNYZheqqFxq_gVrqq-49" style="edgeStyle=orthogonalEdgeStyle;rounded=0;orthogonalLoop=1;jettySize=auto;html=1;exitX=0.5;exitY=1;exitDx=0;exitDy=0;entryX=0;entryY=0.5;entryDx=0;entryDy=0;strokeWidth=2;strokeColor=#7F6000;fontFamily=Verdana;fontSize=11;verticalAlign=middle;" edge="1" parent="WIyWlLk6GJQsqaUBKTNV-1" source="QnAHNYZheqqFxq_gVrqq-1" target="QnAHNYZheqqFxq_gVrqq-47">
          <mxGeometry relative="1" as="geometry">
            <Array as="points">
              <mxPoint x="40" y="140" />
              <mxPoint x="40" y="455" />
            </Array>
          </mxGeometry>
        </mxCell>
        <mxCell id="QnAHNYZheqqFxq_gVrqq-1" value="Fish length" style="whiteSpace=wrap;html=1;rounded=0;fillColor=#f5f5f5;fontColor=#333333;strokeColor=#666666;fontFamily=Verdana;fontSize=11;verticalAlign=middle;" vertex="1" parent="WIyWlLk6GJQsqaUBKTNV-1">
          <mxGeometry x="30" y="110" width="80" height="30" as="geometry" />
        </mxCell>
        <mxCell id="QnAHNYZheqqFxq_gVrqq-20" style="edgeStyle=orthogonalEdgeStyle;rounded=0;orthogonalLoop=1;jettySize=auto;html=1;exitX=0.25;exitY=1;exitDx=0;exitDy=0;entryX=0;entryY=0;entryDx=0;entryDy=0;fillColor=#fff2cc;strokeColor=#d6b656;strokeWidth=2;fontFamily=Verdana;fontSize=11;verticalAlign=middle;" edge="1" parent="WIyWlLk6GJQsqaUBKTNV-1" source="QnAHNYZheqqFxq_gVrqq-4" target="QnAHNYZheqqFxq_gVrqq-51">
          <mxGeometry relative="1" as="geometry">
            <mxPoint x="260" y="235" as="targetPoint" />
            <Array as="points">
              <mxPoint x="153" y="150" />
              <mxPoint x="89" y="150" />
            </Array>
          </mxGeometry>
        </mxCell>
        <mxCell id="QnAHNYZheqqFxq_gVrqq-4" value="Habitat data" style="whiteSpace=wrap;html=1;rounded=0;fillColor=#f5f5f5;fontColor=#333333;strokeColor=#666666;fontFamily=Verdana;fontSize=11;verticalAlign=middle;" vertex="1" parent="WIyWlLk6GJQsqaUBKTNV-1">
          <mxGeometry x="130" y="110" width="90" height="30" as="geometry" />
        </mxCell>
        <mxCell id="QnAHNYZheqqFxq_gVrqq-39" style="edgeStyle=orthogonalEdgeStyle;rounded=0;orthogonalLoop=1;jettySize=auto;html=1;exitX=0.5;exitY=1;exitDx=0;exitDy=0;entryX=0.5;entryY=0;entryDx=0;entryDy=0;fillColor=#f5f5f5;strokeColor=#666666;strokeWidth=2;fontFamily=Verdana;fontSize=11;verticalAlign=middle;" edge="1" parent="WIyWlLk6GJQsqaUBKTNV-1" source="QnAHNYZheqqFxq_gVrqq-7" target="QnAHNYZheqqFxq_gVrqq-24">
          <mxGeometry relative="1" as="geometry" />
        </mxCell>
        <mxCell id="QnAHNYZheqqFxq_gVrqq-41" style="edgeStyle=orthogonalEdgeStyle;rounded=0;orthogonalLoop=1;jettySize=auto;html=1;exitX=0.25;exitY=1;exitDx=0;exitDy=0;strokeColor=#7F6000;strokeWidth=2;entryX=1;entryY=0.5;entryDx=0;entryDy=0;fontFamily=Verdana;fontSize=11;verticalAlign=middle;" edge="1" parent="WIyWlLk6GJQsqaUBKTNV-1" source="QnAHNYZheqqFxq_gVrqq-7" target="QnAHNYZheqqFxq_gVrqq-47">
          <mxGeometry relative="1" as="geometry">
            <mxPoint x="360" y="440" as="targetPoint" />
            <Array as="points">
              <mxPoint x="373" y="270" />
              <mxPoint x="373" y="290" />
              <mxPoint x="310" y="290" />
              <mxPoint x="310" y="455" />
            </Array>
          </mxGeometry>
        </mxCell>
        <mxCell id="QnAHNYZheqqFxq_gVrqq-7" value="250m resolution bathymetry data" style="rounded=0;whiteSpace=wrap;html=1;fillColor=#f5f5f5;fontColor=#333333;strokeColor=#666666;fontFamily=Verdana;fontSize=11;verticalAlign=middle;" vertex="1" parent="WIyWlLk6GJQsqaUBKTNV-1">
          <mxGeometry x="338.5" y="220" width="130" height="50" as="geometry" />
        </mxCell>
        <mxCell id="QnAHNYZheqqFxq_gVrqq-34" style="edgeStyle=orthogonalEdgeStyle;rounded=0;orthogonalLoop=1;jettySize=auto;html=1;exitX=0;exitY=0.5;exitDx=0;exitDy=0;entryX=0.5;entryY=0;entryDx=0;entryDy=0;fillColor=#f5f5f5;strokeColor=#666666;strokeWidth=2;fontFamily=Verdana;fontSize=11;verticalAlign=middle;" edge="1" parent="WIyWlLk6GJQsqaUBKTNV-1" source="QnAHNYZheqqFxq_gVrqq-8" target="QnAHNYZheqqFxq_gVrqq-23">
          <mxGeometry relative="1" as="geometry" />
        </mxCell>
        <mxCell id="QnAHNYZheqqFxq_gVrqq-35" style="edgeStyle=orthogonalEdgeStyle;rounded=0;orthogonalLoop=1;jettySize=auto;html=1;exitX=0.75;exitY=1;exitDx=0;exitDy=0;entryX=1;entryY=0;entryDx=0;entryDy=0;fillColor=#fff2cc;strokeColor=#d6b656;strokeWidth=2;fontFamily=Verdana;fontSize=11;verticalAlign=middle;" edge="1" parent="WIyWlLk6GJQsqaUBKTNV-1" source="QnAHNYZheqqFxq_gVrqq-8" target="QnAHNYZheqqFxq_gVrqq-51">
          <mxGeometry relative="1" as="geometry">
            <mxPoint x="357.5" y="217.5" as="targetPoint" />
            <Array as="points">
              <mxPoint x="446" y="170" />
              <mxPoint x="181" y="170" />
            </Array>
          </mxGeometry>
        </mxCell>
        <mxCell id="QnAHNYZheqqFxq_gVrqq-36" style="edgeStyle=orthogonalEdgeStyle;rounded=0;orthogonalLoop=1;jettySize=auto;html=1;exitX=0.5;exitY=1;exitDx=0;exitDy=0;strokeColor=#7F6000;strokeWidth=2;entryX=1;entryY=0;entryDx=0;entryDy=0;fontFamily=Verdana;fontSize=11;verticalAlign=middle;" edge="1" parent="WIyWlLk6GJQsqaUBKTNV-1" source="QnAHNYZheqqFxq_gVrqq-8" target="QnAHNYZheqqFxq_gVrqq-47">
          <mxGeometry relative="1" as="geometry">
            <mxPoint x="350" y="460" as="targetPoint" />
            <Array as="points">
              <mxPoint x="414" y="160" />
              <mxPoint x="300" y="160" />
              <mxPoint x="300" y="430" />
            </Array>
          </mxGeometry>
        </mxCell>
        <mxCell id="QnAHNYZheqqFxq_gVrqq-8" value="5m resolution bathymetry data" style="rounded=0;whiteSpace=wrap;html=1;fillColor=#f5f5f5;fontColor=#333333;strokeColor=#666666;fontFamily=Verdana;fontSize=11;verticalAlign=middle;" vertex="1" parent="WIyWlLk6GJQsqaUBKTNV-1">
          <mxGeometry x="349" y="40" width="130" height="50" as="geometry" />
        </mxCell>
        <mxCell id="QnAHNYZheqqFxq_gVrqq-53" style="edgeStyle=orthogonalEdgeStyle;rounded=0;orthogonalLoop=1;jettySize=auto;html=1;exitX=0.5;exitY=1;exitDx=0;exitDy=0;strokeWidth=2;strokeColor=#7F6000;entryX=0.5;entryY=0;entryDx=0;entryDy=0;fontFamily=Verdana;fontSize=11;verticalAlign=middle;" edge="1" parent="WIyWlLk6GJQsqaUBKTNV-1" source="QnAHNYZheqqFxq_gVrqq-23" target="QnAHNYZheqqFxq_gVrqq-47">
          <mxGeometry relative="1" as="geometry">
            <mxPoint x="260" y="390" as="targetPoint" />
            <Array as="points">
              <mxPoint x="290" y="150" />
              <mxPoint x="290" y="400" />
              <mxPoint x="140" y="400" />
            </Array>
          </mxGeometry>
        </mxCell>
        <mxCell id="QnAHNYZheqqFxq_gVrqq-23" value="Bathymetry derivatives (roughness and aspect)" style="rounded=1;whiteSpace=wrap;html=1;fillColor=#f5f5f5;fontColor=#333333;strokeColor=#666666;fontFamily=Verdana;fontSize=11;verticalAlign=middle;" vertex="1" parent="WIyWlLk6GJQsqaUBKTNV-1">
          <mxGeometry x="240" y="100" width="150" height="50" as="geometry" />
        </mxCell>
        <mxCell id="QnAHNYZheqqFxq_gVrqq-43" style="edgeStyle=orthogonalEdgeStyle;rounded=0;orthogonalLoop=1;jettySize=auto;html=1;exitX=0.25;exitY=1;exitDx=0;exitDy=0;strokeColor=#7F6000;strokeWidth=2;entryX=1;entryY=1;entryDx=0;entryDy=0;fontFamily=Verdana;fontSize=11;verticalAlign=middle;" edge="1" parent="WIyWlLk6GJQsqaUBKTNV-1" source="QnAHNYZheqqFxq_gVrqq-24" target="QnAHNYZheqqFxq_gVrqq-47">
          <mxGeometry relative="1" as="geometry">
            <mxPoint x="430" y="360" as="targetPoint" />
            <Array as="points">
              <mxPoint x="366" y="480" />
              <mxPoint x="320" y="480" />
            </Array>
          </mxGeometry>
        </mxCell>
        <mxCell id="QnAHNYZheqqFxq_gVrqq-44" style="edgeStyle=orthogonalEdgeStyle;rounded=0;orthogonalLoop=1;jettySize=auto;html=1;exitX=0;exitY=0.25;exitDx=0;exitDy=0;entryX=1;entryY=1;entryDx=0;entryDy=0;fillColor=#fff2cc;strokeColor=#d6b656;strokeWidth=2;fontFamily=Verdana;fontSize=11;verticalAlign=middle;" edge="1" parent="WIyWlLk6GJQsqaUBKTNV-1" source="QnAHNYZheqqFxq_gVrqq-24" target="QnAHNYZheqqFxq_gVrqq-51">
          <mxGeometry relative="1" as="geometry">
            <mxPoint x="357.5" y="252.5" as="targetPoint" />
          </mxGeometry>
        </mxCell>
        <mxCell id="QnAHNYZheqqFxq_gVrqq-24" value="Bathymetry derivatives (detrended bathymetry, roughness and aspect)" style="rounded=1;whiteSpace=wrap;html=1;fillColor=#f5f5f5;fontColor=#333333;strokeColor=#666666;fontFamily=Verdana;fontSize=11;verticalAlign=middle;" vertex="1" parent="WIyWlLk6GJQsqaUBKTNV-1">
          <mxGeometry x="328" y="310" width="151" height="60" as="geometry" />
        </mxCell>
        <mxCell id="QnAHNYZheqqFxq_gVrqq-37" style="edgeStyle=orthogonalEdgeStyle;rounded=0;orthogonalLoop=1;jettySize=auto;html=1;entryX=0.5;entryY=0;entryDx=0;entryDy=0;fillColor=#fff2cc;strokeColor=#d6b656;strokeWidth=2;exitX=0.25;exitY=1;exitDx=0;exitDy=0;fontFamily=Verdana;fontSize=11;verticalAlign=middle;" edge="1" parent="WIyWlLk6GJQsqaUBKTNV-1" source="QnAHNYZheqqFxq_gVrqq-23" target="QnAHNYZheqqFxq_gVrqq-51">
          <mxGeometry relative="1" as="geometry">
            <mxPoint x="285" y="170" as="sourcePoint" />
            <mxPoint x="170" y="180" as="targetPoint" />
            <Array as="points">
              <mxPoint x="278" y="160" />
              <mxPoint x="135" y="160" />
            </Array>
          </mxGeometry>
        </mxCell>
        <mxCell id="QnAHNYZheqqFxq_gVrqq-42" style="edgeStyle=orthogonalEdgeStyle;rounded=0;orthogonalLoop=1;jettySize=auto;html=1;exitX=0;exitY=0.5;exitDx=0;exitDy=0;entryX=1;entryY=0.5;entryDx=0;entryDy=0;fillColor=#fff2cc;strokeColor=#d6b656;strokeWidth=2;fontFamily=Verdana;fontSize=11;verticalAlign=middle;" edge="1" parent="WIyWlLk6GJQsqaUBKTNV-1" source="QnAHNYZheqqFxq_gVrqq-7" target="QnAHNYZheqqFxq_gVrqq-51">
          <mxGeometry relative="1" as="geometry">
            <mxPoint x="390" y="235" as="targetPoint" />
            <Array as="points">
              <mxPoint x="338" y="220" />
            </Array>
          </mxGeometry>
        </mxCell>
        <mxCell id="QnAHNYZheqqFxq_gVrqq-46" value="Abundance prediction" style="ellipse;whiteSpace=wrap;html=1;gradientColor=none;fillColor=#7F6000;fontColor=#FFFFFF;strokeColor=#4B3900;fontFamily=Verdana;fontSize=11;verticalAlign=middle;" vertex="1" parent="WIyWlLk6GJQsqaUBKTNV-1">
          <mxGeometry x="70" y="590" width="140" height="60" as="geometry" />
        </mxCell>
        <mxCell id="QnAHNYZheqqFxq_gVrqq-47" value="Spatial distribution model (GAM)" style="ellipse;whiteSpace=wrap;html=1;fillColor=#7F6000;fontColor=#FFFFFF;strokeColor=#4B3900;fontFamily=Verdana;fontSize=11;verticalAlign=middle;" vertex="1" parent="WIyWlLk6GJQsqaUBKTNV-1">
          <mxGeometry x="72.5" y="420" width="135" height="70" as="geometry" />
        </mxCell>
        <mxCell id="QnAHNYZheqqFxq_gVrqq-51" value="Habitat distribution model (GAM)" style="ellipse;whiteSpace=wrap;html=1;fillColor=#FFF2CC;strokeColor=#d6b656;fontFamily=Verdana;fontSize=11;verticalAlign=middle;fontColor=#AB9245;" vertex="1" parent="WIyWlLk6GJQsqaUBKTNV-1">
          <mxGeometry x="70" y="190" width="130" height="60" as="geometry" />
        </mxCell>
        <mxCell id="QnAHNYZheqqFxq_gVrqq-55" value="" style="shape=flexArrow;endArrow=classic;html=1;rounded=0;entryX=0.5;entryY=0;entryDx=0;entryDy=0;exitX=0.5;exitY=1;exitDx=0;exitDy=0;endWidth=21;endSize=7.33;width=21;fillColor=#7F6000;labelBackgroundColor=none;strokeColor=#4B3900;fontFamily=Verdana;fontSize=11;verticalAlign=middle;" edge="1" parent="WIyWlLk6GJQsqaUBKTNV-1" source="QnAHNYZheqqFxq_gVrqq-47" target="QnAHNYZheqqFxq_gVrqq-46">
          <mxGeometry width="50" height="50" relative="1" as="geometry">
            <mxPoint x="202.5" y="480" as="sourcePoint" />
            <mxPoint x="252.5" y="430" as="targetPoint" />
          </mxGeometry>
        </mxCell>
        <mxCell id="QnAHNYZheqqFxq_gVrqq-56" value="Optimal model" style="edgeLabel;html=1;align=center;verticalAlign=middle;resizable=0;points=[];rotation=90;labelBackgroundColor=none;fontColor=#FFFFFF;fontFamily=Verdana;fontSize=11;" vertex="1" connectable="0" parent="QnAHNYZheqqFxq_gVrqq-55">
          <mxGeometry x="-0.5655" y="-6" relative="1" as="geometry">
            <mxPoint x="6" y="24" as="offset" />
          </mxGeometry>
        </mxCell>
        <mxCell id="QnAHNYZheqqFxq_gVrqq-57" value="" style="shape=flexArrow;endArrow=classic;html=1;rounded=0;exitX=0.5;exitY=1;exitDx=0;exitDy=0;endWidth=21;endSize=7.33;width=21;entryX=0.5;entryY=0;entryDx=0;entryDy=0;fillColor=#fff2cc;strokeColor=#d6b656;fontFamily=Verdana;fontSize=11;verticalAlign=middle;fontColor=#AB9245;" edge="1" parent="WIyWlLk6GJQsqaUBKTNV-1" source="QnAHNYZheqqFxq_gVrqq-51" target="QnAHNYZheqqFxq_gVrqq-59">
          <mxGeometry width="50" height="50" relative="1" as="geometry">
            <mxPoint x="320" y="270" as="sourcePoint" />
            <mxPoint x="320" y="310" as="targetPoint" />
          </mxGeometry>
        </mxCell>
        <mxCell id="QnAHNYZheqqFxq_gVrqq-58" value="Optimal model" style="edgeLabel;html=1;align=center;verticalAlign=middle;resizable=0;points=[];rotation=90;labelBackgroundColor=none;fontFamily=Verdana;fontSize=11;fontColor=#AB9245;" vertex="1" connectable="0" parent="QnAHNYZheqqFxq_gVrqq-57">
          <mxGeometry x="-0.5655" y="-6" relative="1" as="geometry">
            <mxPoint x="6" y="24" as="offset" />
          </mxGeometry>
        </mxCell>
        <mxCell id="QnAHNYZheqqFxq_gVrqq-62" style="edgeStyle=orthogonalEdgeStyle;rounded=0;orthogonalLoop=1;jettySize=auto;html=1;exitX=0;exitY=1;exitDx=0;exitDy=0;entryX=0;entryY=0;entryDx=0;entryDy=0;labelBackgroundColor=none;strokeWidth=2;strokeColor=#7F6000;fontFamily=Verdana;fontSize=11;verticalAlign=middle;" edge="1" parent="WIyWlLk6GJQsqaUBKTNV-1" source="QnAHNYZheqqFxq_gVrqq-59" target="QnAHNYZheqqFxq_gVrqq-47">
          <mxGeometry relative="1" as="geometry">
            <Array as="points">
              <mxPoint x="92" y="384" />
            </Array>
          </mxGeometry>
        </mxCell>
        <mxCell id="QnAHNYZheqqFxq_gVrqq-59" value="Habitat prediction" style="ellipse;whiteSpace=wrap;html=1;fillColor=#fff2cc;strokeColor=#d6b656;fontFamily=Verdana;fontSize=11;verticalAlign=middle;fontColor=#AB9245;" vertex="1" parent="WIyWlLk6GJQsqaUBKTNV-1">
          <mxGeometry x="70" y="350" width="130" height="40" as="geometry" />
        </mxCell>
        <mxCell id="QnAHNYZheqqFxq_gVrqq-65" value="Legend" style="swimlane;whiteSpace=wrap;html=1;" vertex="1" parent="WIyWlLk6GJQsqaUBKTNV-1">
          <mxGeometry x="240" y="490" width="230" height="160" as="geometry" />
        </mxCell>
        <mxCell id="QnAHNYZheqqFxq_gVrqq-66" value="Original data" style="rounded=0;whiteSpace=wrap;html=1;" vertex="1" parent="QnAHNYZheqqFxq_gVrqq-65">
          <mxGeometry x="10" y="30" width="100" height="20" as="geometry" />
        </mxCell>
        <mxCell id="QnAHNYZheqqFxq_gVrqq-67" value="Derivatives" style="rounded=1;whiteSpace=wrap;html=1;" vertex="1" parent="QnAHNYZheqqFxq_gVrqq-65">
          <mxGeometry x="120" y="30" width="100" height="20" as="geometry" />
        </mxCell>
        <mxCell id="QnAHNYZheqqFxq_gVrqq-70" value="Model" style="ellipse;whiteSpace=wrap;html=1;" vertex="1" parent="QnAHNYZheqqFxq_gVrqq-65">
          <mxGeometry x="10" y="60" width="100" height="20" as="geometry" />
        </mxCell>
        <mxCell id="QnAHNYZheqqFxq_gVrqq-73" value="" style="endArrow=classic;html=1;rounded=0;strokeWidth=2;strokeColor=#D6B656;" edge="1" parent="QnAHNYZheqqFxq_gVrqq-65">
          <mxGeometry width="50" height="50" relative="1" as="geometry">
            <mxPoint x="10" y="114.60000000000001" as="sourcePoint" />
            <mxPoint x="90" y="115" as="targetPoint" />
          </mxGeometry>
        </mxCell>
        <mxCell id="QnAHNYZheqqFxq_gVrqq-74" value="" style="endArrow=classic;html=1;rounded=0;strokeWidth=2;strokeColor=#7F6000;" edge="1" parent="QnAHNYZheqqFxq_gVrqq-65">
          <mxGeometry width="50" height="50" relative="1" as="geometry">
            <mxPoint x="10" y="139.6" as="sourcePoint" />
            <mxPoint x="90" y="140" as="targetPoint" />
          </mxGeometry>
        </mxCell>
        <mxCell id="QnAHNYZheqqFxq_gVrqq-75" value="Habitat model process" style="text;html=1;align=left;verticalAlign=middle;whiteSpace=wrap;rounded=0;" vertex="1" parent="QnAHNYZheqqFxq_gVrqq-65">
          <mxGeometry x="100" y="105" width="130" height="20" as="geometry" />
        </mxCell>
        <mxCell id="QnAHNYZheqqFxq_gVrqq-76" value="Distribution model process" style="text;html=1;align=left;verticalAlign=middle;whiteSpace=wrap;rounded=0;" vertex="1" parent="QnAHNYZheqqFxq_gVrqq-65">
          <mxGeometry x="100" y="125" width="130" height="30" as="geometry" />
        </mxCell>
        <mxCell id="QnAHNYZheqqFxq_gVrqq-77" value="" style="shape=flexArrow;endArrow=classic;html=1;rounded=0;endWidth=5.125;endSize=5.19;width=16.5;" edge="1" parent="QnAHNYZheqqFxq_gVrqq-65">
          <mxGeometry width="50" height="50" relative="1" as="geometry">
            <mxPoint x="120" y="69.6" as="sourcePoint" />
            <mxPoint x="220" y="70" as="targetPoint" />
            <Array as="points">
              <mxPoint x="140" y="69.6" />
            </Array>
          </mxGeometry>
        </mxCell>
        <mxCell id="QnAHNYZheqqFxq_gVrqq-78" value="Optimal model" style="edgeLabel;html=1;align=center;verticalAlign=middle;resizable=0;points=[];labelBackgroundColor=none;fontSize=11;" vertex="1" connectable="0" parent="QnAHNYZheqqFxq_gVrqq-77">
          <mxGeometry x="-0.7163" relative="1" as="geometry">
            <mxPoint x="39" as="offset" />
          </mxGeometry>
        </mxCell>
        <mxCell id="QnAHNYZheqqFxq_gVrqq-79" value="" style="endArrow=classic;html=1;rounded=0;strokeWidth=2;strokeColor=#666666;fillColor=#eeeeee;" edge="1" parent="QnAHNYZheqqFxq_gVrqq-65">
          <mxGeometry width="50" height="50" relative="1" as="geometry">
            <mxPoint x="10" y="94.60000000000002" as="sourcePoint" />
            <mxPoint x="90" y="95" as="targetPoint" />
          </mxGeometry>
        </mxCell>
        <mxCell id="QnAHNYZheqqFxq_gVrqq-80" value="Derivatives" style="text;html=1;align=left;verticalAlign=middle;whiteSpace=wrap;rounded=0;" vertex="1" parent="QnAHNYZheqqFxq_gVrqq-65">
          <mxGeometry x="100" y="85" width="130" height="20" as="geometry" />
        </mxCell>
      </root>
    </mxGraphModel>
  </diagram>
</mxfile>
